#!OML:ASF X:\für Bonn\!DataBase\2005_08_11_Bastian_Final\c3d\Bastian.ASF
:FULLY-SPECIFIED
:DEGREES
52
root 1.32698 18.2701 0.928281 173.783 -6.77972 -174.209
lowerback 8.30195 -4.89176 3.48342
upperback 2.18823 -6.50525 3.72602
thorax -2.29952 -3.41339 2.577
lowerneck 4.40526 -4.04018 -6.17516
upperneck -1.04878 -5.40105 9.88735
head -0.640566 -2.76001 4.45525
rclavicle -6.13499e-014 1.19271e-014
rhumerus 22.9295 -23.9422 30.8305
rradius 40.5095
rwrist -71.6128
rhand -66.4963 1.18178
rfingers 7.12502
rthumb -38.3116 -24.532
lclavicle -6.13499e-014 1.19271e-014
lhumerus -339.939 -41.2862 294.648
lradius 38.3944
lwrist 70.0136
lhand -63.0433 35.5936
lfingers 7.12502
lthumb -35.044 62.1394
rfemur -4.02353 5.05998 26.6482
rtibia 30.6137
rfoot -5.82797 -9.71264
rtoes -13.7336
lfemur 17.8881 -3.66623 -11.3779
ltibia 10.714
lfoot 3.34972 0.821525
ltoes -30.6174
53
root 1.35364 18.2342 0.840915 173.698 -6.68871 -174.32
lowerback 7.81469 -4.93091 3.27811
upperback 2.26206 -6.60126 3.68274
thorax -1.93577 -3.45757 2.59743
lowerneck 4.595 -3.91873 -6.2074
upperneck -0.953627 -5.25226 9.85269
head -0.657598 -2.68809 4.45304
rclavicle 2.9122e-014 -2.14687e-014
rhumerus 19.189 -20.2715 32.6571
rradius 40.2321
rwrist -72.9222
rhand -66.663 -0.760422
rfingers 7.12502
rthumb -38.4689 -26.4305
lclavicle 2.9122e-014 -2.14687e-014
lhumerus -344.447 -41.8143 299.788
lradius 37.9447
lwrist 68.7506
lhand -63.8122 37.6042
lfingers 7.12502
lthumb -35.773 63.9762
rfemur -3.70341 4.88861 26.6606
rtibia 30.6698
rfoot -6.19671 -9.51659
rtoes -12.5971
lfemur 18.3814 -3.68041 -11.4642
ltibia 10.6718
lfoot 2.96443 1.12047
ltoes -30.5528
54
root 1.38103 18.199 0.754711 173.631 -6.61652 -174.434
lowerback 7.30945 -4.96469 3.0565
upperback 2.34696 -6.69076 3.64343
thorax -1.54801 -3.49924 2.62653
lowerneck 4.72302 -3.81412 -6.22183
upperneck -0.873848 -5.12222 9.81502
head -0.667289 -2.62438 4.44433
rclavicle 5.38706e-014 -1.43125e-014
rhumerus 15.4141 -15.0494 34.6384
rradius 39.8381
rwrist -73.7749
rhand -66.2427 -4.21654
rfingers 7.12502
rthumb -38.0722 -29.9961
lclavicle 5.38706e-014 -1.43125e-014
lhumerus -349.015 -42.3722 304.86
lradius 37.4919
lwrist 67.4568
lhand -64.2232 39.1343
lfingers 7.12502
lthumb -36.1624 65.4108
rfemur -3.36876 4.71053 26.6797
rtibia 30.7402
rfoot -6.62754 -9.36845
rtoes -11.428
lfemur 18.8125 -3.67003 -11.5316
ltibia 10.6974
lfoot 2.5582 1.33925
ltoes -30.4904
55
root 1.40755 18.1643 0.671145 173.557 -6.55012 -174.542
lowerback 6.82182 -4.99542 2.88717
upperback 2.44491 -6.76841 3.56774
thorax -1.16655 -3.53449 2.58914
lowerneck 4.82769 -3.71538 -6.18467
upperneck -0.797828 -4.99254 9.81679
head -0.674166 -2.55987 4.43871
rclavicle -4.17199e-014 7.39479e-014
rhumerus 11.8862 -8.55107 36.2153
rradius 39.3882
rwrist -74.1191
rhand -65.3758 -7.88821
rfingers 7.12502
rthumb -37.2531 -33.8868
lclavicle -4.17199e-014 7.39479e-014
lhumerus -353.607 -42.9326 309.906
lradius 36.923
lwrist 65.8325
lhand -64.1869 40.1763
lfingers 7.12502
lthumb -36.128 66.4613
rfemur -3.00464 4.55166 26.7102
rtibia 30.8148
rfoot -7.19347 -9.26528
rtoes -10.1676
lfemur 19.2062 -3.67543 -11.6015
ltibia 10.782
lfoot 2.13649 1.56085
ltoes -30.6484
56
root 1.43312 18.1305 0.590289 173.485 -6.49797 -174.693
lowerback 6.34958 -5.01286 2.68896
upperback 2.54942 -6.82613 3.47769
thorax -0.785634 -3.55966 2.55195
lowerneck 4.98523 -3.6288 -6.1485
upperneck -0.837673 -4.87529 9.82155
head -0.727008 -2.50463 4.43838
rclavicle 6.73135e-014 -1.19271e-014
rhumerus 8.66833 -1.12409 37.1886
rradius 39.007
rwrist -74.3147
rhand -64.3954 -10.2883
rfingers 7.12502
rthumb -36.3254 -36.5242
lclavicle 6.73135e-014 -1.19271e-014
lhumerus -358.218 -43.6675 314.937
lradius 36.2967
lwrist 63.9659
lhand -63.722 40.6021
lfingers 7.12502
lthumb -35.6875 66.9948
rfemur -2.61981 4.30378 26.6768
rtibia 30.8839
rfoot -7.80417 -9.13463
rtoes -8.84482
lfemur 19.5449 -3.68573 -11.7203
ltibia 10.9442
lfoot 1.72068 1.76941
ltoes -30.7434
57
root 1.45791 18.0979 0.50961 173.427 -6.44314 -174.806
lowerback 5.83142 -5.01576 2.54678
upperback 2.67049 -6.86331 3.39108
thorax -0.36835 -3.57504 2.48047
lowerneck 5.14262 -3.55918 -6.05344
upperneck -0.935006 -4.77422 9.804
head -0.798917 -2.45818 4.41945
rclavicle -1.00734e-013 5.64548e-014
rhumerus 5.71213 6.78513 37.3786
rradius 38.784
rwrist -74.8512
rhand -63.776 -10.5814
rfingers 7.12502
rthumb -35.7387 -36.9617
lclavicle -1.00734e-013 5.64548e-014
lhumerus -362.789 -44.8022 319.931
lradius 35.5939
lwrist 62.1221
lhand -62.9361 40.6085
lfingers 7.12502
lthumb -34.9423 67.178
rfemur -2.23594 4.00364 26.6854
rtibia 30.9351
rfoot -8.41146 -9.02123
rtoes -8.10072
lfemur 19.8188 -3.70404 -11.8046
ltibia 11.2102
lfoot 1.24664 1.96024
ltoes -30.9559
58
root 1.48072 18.0672 0.432966 173.37 -6.39815 -174.94
lowerback 5.33188 -5.00477 2.42516
upperback 2.79831 -6.87788 3.29051
thorax 0.0411778 -3.57873 2.38406
lowerneck 5.27977 -3.50952 -5.98514
upperneck -1.09124 -4.69738 9.81105
head -0.882933 -2.42469 4.41549
rclavicle -9.077e-014 8.8658e-014
rhumerus 2.82352 14.4291 36.5763
rradius 38.7985
rwrist -75.7501
rhand -63.7644 -8.99403
rfingers 7.12502
rthumb -35.7277 -35.377
lclavicle -9.077e-014 8.8658e-014
lhumerus -367.462 -46.4577 325.03
lradius 34.8949
lwrist 60.4877
lhand -61.9261 40.2999
lfingers 7.12502
lthumb -33.9835 67.0873
rfemur -1.84744 3.67397 26.666
rtibia 30.9656
rfoot -8.97506 -8.915
rtoes -7.74315
lfemur 20.0366 -3.75633 -11.9367
ltibia 11.5513
lfoot 0.757657 2.1692
ltoes -31.2396
59
root 1.50285 18.0397 0.369972 173.325 -6.36452 -175.073
lowerback 4.95413 -4.97295 2.34538
upperback 2.90832 -6.85363 3.17379
thorax 0.357423 -3.56224 2.26104
lowerneck 5.3944 -3.48782 -5.83993
upperneck -1.33249 -4.64682 9.80535
head -0.990177 -2.40506 4.39314
rclavicle 9.44227e-016 3.45885e-014
rhumerus -0.197879 21.1039 34.5847
rradius 38.9258
rwrist -76.826
rhand -64.2621 -5.95404
rfingers 7.12502
rthumb -36.1992 -32.2214
lclavicle 9.44227e-016 3.45885e-014
lhumerus -372.304 -48.2093 330.5
lradius 34.1386
lwrist 58.923
lhand -60.7612 39.688
lfingers 7.12502
lthumb -32.8762 66.7143
rfemur -1.50835 3.37743 26.643
rtibia 30.9741
rfoot -9.51135 -8.84516
rtoes -7.5051
lfemur 20.1621 -3.76711 -12.0466
ltibia 11.9431
lfoot 0.322515 2.31651
ltoes -31.6176
60
root 1.52506 18.0161 0.318414 173.266 -6.34486 -175.205
lowerback 4.71897 -4.93553 2.26923
upperback 3.00421 -6.81615 3.07363
thorax 0.581733 -3.54062 2.16862
lowerneck 5.38597 -3.47795 -5.74446
upperneck -1.58393 -4.61095 9.82426
head -1.07552 -2.39083 4.38612
rclavicle 2.62893e-014 0
rhumerus -3.44515 26.1631 31.3924
rradius 39.0081
rwrist -77.6687
rhand -64.9588 -2.21277
rfingers 7.12502
rthumb -36.8587 -28.3136
lclavicle 2.62893e-014 0
lhumerus -377.395 -49.5141 336.563
lradius 33.2246
lwrist 57.1419
lhand -59.5093 38.6056
lfingers 7.12502
lthumb -31.6846 65.8743
rfemur -1.19608 3.18662 26.6346
rtibia 30.9654
rfoot -9.99029 -8.88709
rtoes -7.11619
lfemur 20.2448 -3.83436 -12.184
ltibia 12.3544
lfoot -0.0787528 2.50533
ltoes -31.9976
61
root 1.54662 17.9958 0.269948 173.238 -6.34163 -175.363
lowerback 4.47092 -4.88536 2.20361
upperback 3.10343 -6.75876 2.94416
thorax 0.811461 -3.50753 2.039
lowerneck 5.16054 -3.50813 -5.5113
upperneck -1.77784 -4.61882 9.75764
head -1.1034 -2.39248 4.31329
rclavicle -2.60159e-014 -1.19271e-015
rhumerus -6.95434 29.4996 27.1138
rradius 38.8598
rwrist -78.0848
rhand -65.5312 1.19545
rfingers 7.12502
rthumb -37.4 -24.7645
lclavicle -2.60159e-014 -1.19271e-015
lhumerus -382.4 -50.0807 342.921
lradius 32.1266
lwrist 55.1917
lhand -58.1794 37.232
lfingers 7.12502
lthumb -30.417 64.7429
rfemur -0.919512 3.10859 26.611
rtibia 30.9418
rfoot -10.4216 -9.00179
rtoes -6.37227
lfemur 20.2759 -3.83007 -12.3161
ltibia 12.7643
lfoot -0.43676 2.63544
ltoes -32.3099
62
root 1.56829 17.9778 0.224812 173.181 -6.34878 -175.495
lowerback 4.28641 -4.8269 2.19423
upperback 3.20607 -6.68597 2.79959
thorax 1.00142 -3.46613 1.86985
lowerneck 4.83252 -3.56286 -5.25955
upperneck -1.96656 -4.65514 9.70496
head -1.1086 -2.40596 4.23894
rclavicle 3.39425e-014 1.70955e-014
rhumerus -10.6795 31.4394 22.0782
rradius 38.532
rwrist -78.0376
rhand -65.9069 3.04271
rfingers 7.12502
rthumb -37.755 -22.8228
lclavicle 3.39425e-014 1.70955e-014
lhumerus -386.996 -49.7817 349.238
lradius 30.8342
lwrist 53.1017
lhand -56.8142 35.5418
lfingers 7.12502
lthumb -29.114 63.2859
rfemur -0.633553 3.19323 26.651
rtibia 30.9132
rfoot -10.8266 -9.25224
rtoes -5.25345
lfemur 20.3412 -3.86935 -12.4319
ltibia 13.1296
lfoot -0.755773 2.78256
ltoes -32.6131
63
root 1.59057 17.9618 0.182627 173.137 -6.37634 -175.631
lowerback 4.10701 -4.76262 2.18343
upperback 3.3131 -6.60594 2.65777
thorax 1.19393 -3.42135 1.70495
lowerneck 4.40294 -3.63221 -5.04343
upperneck -2.16535 -4.70887 9.69505
head -1.09567 -2.42594 4.18417
rclavicle 1.5704e-014 -3.37934e-014
rhumerus -14.4408 32.2457 16.6192
rradius 37.987
rwrist -77.671
rhand -65.9672 3.14422
rfingers 7.12502
rthumb -37.812 -22.7059
lclavicle 1.5704e-014 -3.37934e-014
lhumerus -390.856 -48.385 355.159
lradius 29.3953
lwrist 50.7208
lhand -55.3925 33.7631
lfingers 7.12502
lthumb -27.7555 61.7341
rfemur -0.374231 3.38803 26.7097
rtibia 30.875
rfoot -11.1817 -9.59446
rtoes -3.97639
lfemur 20.3843 -3.89875 -12.5392
ltibia 13.4705
lfoot -1.0339 2.90795
ltoes -32.9105
